<?xml version="1.0" encoding="utf-8"?>
<!-- Generator: Adobe Illustrator 25.1.0, SVG Export Plug-In . SVG Version: 6.00 Build 0)  -->
<svg version="1.0" id="Слой_1" xmlns="http://www.w3.org/2000/svg" xmlns:xlink="http://www.w3.org/1999/xlink" x="0px" y="0px"
	 viewBox="0 0 141.73 141.73" style="enable-background:new 0 0 141.73 141.73;" xml:space="preserve">
<g>
	<path d="M21.72,80.5c-0.51,0.06-0.8-0.07-1.03-0.39c-0.32-0.43-0.74-0.56-1.29-0.44c-0.71,0.16-1.45,0.28-2.17,0.31
		c-0.47,0.02-0.96-0.1-1.42-0.25c-0.38-0.13-0.7-0.19-1.1-0.08c-0.55,0.15-1.12,0.19-1.69,0.27c-0.45,0.06-0.75-0.19-0.87-0.58
		c-0.35-1.11-0.67-2.24-0.98-3.36c-0.08-0.29-0.07-0.6-0.18-0.87c-0.41-1.02-0.34-2.09-0.31-3.14c0.01-0.37,0.15-0.74,0.23-1.11
		c0.19-0.93,0.37-1.86,0.59-2.79c0.1-0.42,0.24-0.83,0.43-1.22c0.25-0.51,0.62-0.97,0.83-1.49c0.18-0.44,0.32-0.95,0.28-1.41
		c-0.05-0.56,0.04-1.07,0.13-1.6c0.1-0.59,0.2-1.18,0.22-1.77c0.03-1.36,0-2.72,0.37-4.05c0.16-0.57,0.36-1.13,0.55-1.69
		c0.08-0.23,0.26-0.44,0.28-0.67c0.09-1.07,0.58-2.08,0.49-3.17c-0.09-1.06,0.2-1.99,0.82-2.82c0.11-0.15,0.28-0.25,0.43-0.36
		c0.53-0.41,0.56-0.57,0.18-1.14c-0.05-0.07-0.11-0.12-0.16-0.19c-0.27-0.43-0.15-0.94,0.33-1.04c0.69-0.15,0.93-0.58,1.03-1.2
		c0.02-0.16,0.1-0.31,0.14-0.47c0.16-0.63,0.54-0.97,1.2-1.01c0.23-0.01,0.44-0.12,0.76-0.21c-0.34-0.69,0.06-1.01,0.45-1.44
		c0.67-0.74,1.58-0.88,2.4-1.26c0.34-0.16,0.68-0.31,1.03-0.46c0.02-0.01,0.04-0.05,0.06-0.05c0.91,0.03,1.66-0.54,2.53-0.67
		c0.31-0.04,0.61-0.17,0.92-0.25c0.31-0.08,0.62-0.2,0.94-0.23c0.51-0.04,1.02-0.15,1.51-0.19c1.14-0.1,2.11-0.69,3.21-0.85
		c0.27-0.04,0.54-0.13,0.81-0.1c0.59,0.07,0.99-0.23,1.35-0.61c0.8-0.85,1.72-1.38,2.94-1.32c0.4,0.02,0.81-0.1,1.21-0.16
		c0.72-0.12,1.46-0.19,2.16-0.38c0.67-0.18,1.34-0.44,1.96-0.75c0.4-0.21,0.74-0.35,1.22-0.27c0.38,0.07,0.81-0.01,1.19-0.13
		c0.68-0.21,1.36-0.25,2-0.02c0.7,0.26,1.37,0.24,2.08,0.11c0.42-0.07,0.87-0.22,1.17,0.23c-0.09,0.53-0.2,1.03-0.24,1.53
		c-0.02,0.23,0.03,0.53,0.16,0.69c0.61,0.75,1.3,1.41,2.32,1.52c0.24,0.03,0.52-0.11,0.75-0.23c0.35-0.19,0.64-0.22,0.98,0.02
		c0.46,0.32,0.98,0.57,1.43,0.9c0.18,0.13,0.33,0.38,0.36,0.6c0.03,0.16-0.11,0.48-0.25,0.52c-0.71,0.23-1.28,0.88-2.12,0.75
		c-0.05-0.01-0.11,0.02-0.16,0.05c-1.17,0.57-2.49,0.51-3.7,0.9c-0.41,0.13-0.81,0.29-1.18,0.51c-0.97,0.58-2.14,0.56-3.14,1.05
		c-0.07,0.04-0.15,0.06-0.23,0.07c-1.01,0.17-2.02,0.34-3.02,0.5c-0.16,0.03-0.33,0.03-0.48,0.08c-0.82,0.27-1.63,0.57-2.46,0.83
		c-0.31,0.1-0.66,0.06-0.95,0.18c-0.64,0.28-1.26,0.61-1.99,0.54c-1.31,0.76-2.82,0.63-4.23,0.9c-0.66,0.12-1.14,0.42-1.74,0.91
		c0.56,0.19,1.02,0.35,1.48,0.49c0.92,0.27,1.89,0.36,2.8,0.73c0.71,0.29,1.49,0.41,2.24,0.61c0.21,0.06,0.43,0.09,0.63,0.17
		c0.96,0.39,1.85,0.38,2.69-0.47c0.9,0.72,2.1,0.69,3.16,1.14c-0.05,0.21-0.08,0.36-0.11,0.51c0.77,0.55,1.64,0.81,2.52,1.08
		c0.41,0.13,0.8,0.31,1.21,0.45c0.64,0.22,1.28,0.42,1.91,0.66c0.48,0.18,0.95,0.18,1.43,0c1.37-0.5,2.74-0.65,4.12,0
		c0.21,0.1,0.48,0.14,0.72,0.12c0.47-0.04,0.84,0.12,1.19,0.42c0.41,0.35,0.9,0.42,1.44,0.35c0.84-0.11,1.68,0.06,2.46,0.37
		c0.78,0.32,1.16,1.04,1.4,1.82c0.14,0.44-0.16,0.62-0.5,0.8c-0.41,0.22-0.48,0.56-0.24,0.93c0.36,0.56,0.83,0.54,1.19-0.03
		c0.1-0.16,0.21-0.3,0.39-0.55c0.2,0.2,0.39,0.34,0.49,0.53c0.31,0.57,0.64,1.13,0.86,1.73c0.39,1.07,1.01,2.04,1.22,3.19
		c0.13,0.74,0.5,1.32,1.09,1.84c0.63,0.55,1.01,1.33,1.26,2.15c0.05,0.17-0.06,0.38-0.12,0.7c-0.26-0.28-0.4-0.49-0.59-0.61
		c-0.13-0.08-0.39-0.12-0.51-0.04c-0.13,0.08-0.25,0.34-0.21,0.47c0.21,0.61,0.44,1.22,0.72,1.8c0.13,0.27,0.45,0.44,0.77,0.31
		c0.34-0.14,0.43-0.45,0.36-0.81c-0.04-0.22-0.04-0.45-0.06-0.69c0.41-0.03,0.56,0.11,0.57,0.41c0,0.16,0.01,0.33,0,0.49
		c-0.03,0.57,0.03,1.05,0.5,1.52c0.63,0.63,0.48,1.3-0.26,1.87c0.17,0.19,0.35,0.38,0.51,0.57c0.27,0.32,0.42,0.68,0.42,1.12
		c-0.01,0.72,0.19,1.39,0.55,2.06c0.15,0.02,0.31,0.04,0.47,0.07c0.51,0.13,0.71,0.42,0.65,0.95c-0.02,0.19-0.07,0.37-0.1,0.56
		c-0.15,0.78-0.08,0.84,0.58,1.29c0.46,0.32,1.07,0.61,0.82,1.4c-0.05,0.14,0.07,0.37,0.17,0.52c0.5,0.8,1.01,1.6,1.54,2.39
		c0.24,0.36,0.46,0.67,0.96,0.8c0.96,0.25,1.68,1.53,1.55,2.53c-0.01,0.1-0.06,0.21-0.11,0.3c-0.63,1.09-0.56,2.04,0.18,2.98
		c0.56,0.7,1.11,1.42,1.64,2.14c0.12,0.16,0.15,0.4,0.21,0.6c0.07,0.25,0.13,0.51,0.22,0.88c0.38-0.2,0.67-0.35,0.98-0.51
		c0.81,0.33,0.89,0.41,1.58,1.65c0.42-0.15,0.9-0.24,1.27-0.48c0.53-0.35,0.91-0.85,1.01-1.52c0.08-0.56,0.3-1.11,0.87-1.26
		c0.73-0.19,1.3,0.23,1.78,0.75c0.09,0.1,0.13,0.24,0.21,0.35c0.11,0.14,0.24,0.28,0.44,0.51c0.01-1.31,0.83-1.7,1.82-1.94
		c0.5-0.12,0.96-0.28,1.5-0.23c0.28,0.03,0.68-0.23,0.89-0.48c0.5-0.61,0.93-1.27,1.36-1.93c0.19-0.29,0.33-0.62,0.48-0.94
		c0.21-0.44,0.53-0.76,0.99-0.92c0.44-0.15,0.75-0.43,0.94-0.85c0.47-1.04,1.23-1.84,2.03-2.63c0.36-0.36,0.66-0.8,0.98-1.2
		c0.6-0.75,1.32-1.36,2.15-1.85c0.61-0.36,1.19-0.77,1.5-1.45c0.19-0.41,0.53-0.6,0.98-0.61c0.62-0.01,1.24-0.02,1.85-0.03
		c0.57,0,1.04-0.25,1.47-0.6c0.44-0.36,0.88-0.71,1.3-1.09c0.38-0.34,0.72-0.72,1.11-1.11c0.03,0.01,0.13,0.01,0.17,0.06
		c0.87,0.85,1.83,0.66,2.8,0.23c0.19-0.08,0.39-0.33,0.42-0.53c0.05-0.36,0-0.75-0.05-1.11c-0.1-0.7,0.14-1.08,0.79-1.18
		c0.5-0.08,0.86,0.21,1,0.8c0.02,0.08,0.04,0.16,0.06,0.23c0.01,0.03,0.03,0.05,0.08,0.14c0.51,0.13,1.05,0.13,1.59-0.08
		c0.07-0.03,0.19-0.03,0.24,0.01c0.39,0.35,0.82,0.22,1.21,0.07c0.66-0.25,1.31-0.53,1.94-0.85c0.28-0.14,0.53-0.37,0.75-0.61
		c0.4-0.42,0.88-0.64,1.45-0.62c1.43,0.04,2.66-0.48,3.73-1.38c0.57-0.48,1.17-0.62,1.88-0.57c0.4,0.02,0.8-0.07,1.2-0.09
		c0.43-0.02,0.87-0.07,1.3-0.01c0.83,0.11,1.21,0.59,1.29,1.43c0.04,0.43,0.17,0.85,0.18,1.28c0.01,0.39-0.03,0.81-0.15,1.18
		c-0.29,0.83-0.42,1.62,0.04,2.44c0.09,0.17,0.08,0.42,0.06,0.63c-0.08,0.64-0.2,1.29-0.3,1.93c-0.1,0.65-0.22,0.75-0.9,0.74
		c-0.59-0.01-0.78,0.28-0.46,0.82c0.24,0.39,0.36,0.78,0.32,1.23c-0.05,0.51-0.19,0.66-0.68,0.75c-0.24,0.04-0.48,0.1-0.73,0.11
		c-0.47,0.01-0.82,0.16-1.1,0.57c-0.16,0.23-0.43,0.45-0.7,0.53c-1.56,0.49-3.14,0.65-4.7-0.01c-0.8-0.33-1.62-0.13-2.41-0.05
		c-0.58,0.06-1.12,0.04-1.69-0.06c-0.28-0.05-0.57-0.01-0.81-0.01c-0.07,0.13-0.13,0.18-0.12,0.22c0.09,0.69-0.28,1.07-0.88,1.26
		c-0.92,0.29-1.36,0.92-1.4,1.87c-0.01,0.15-0.08,0.33-0.19,0.44c-0.57,0.59-0.68,1.32-0.54,2.05c0.09,0.5-0.08,0.79-0.43,1.04
		c-0.47,0.33-0.94,0.65-1.44,0.92c-0.5,0.27-1.06,0.45-1.54,0.74c-0.54,0.33-1.02,0.25-1.4-0.15c-0.45-0.47-0.95-0.68-1.58-0.7
		c-0.21,0-0.43-0.07-0.63-0.14c-0.35-0.13-0.63-0.05-0.89,0.2c-0.16,0.15-0.32,0.3-0.51,0.41c-0.57,0.32-1.16,0.49-1.77,0.1
		c-0.37-0.23-0.75-0.29-1.17-0.18c-0.47,0.85-0.22,1.42,0.71,1.57c0.35,0.06,0.8,0.02,0.74,0.52c-0.04,0.44-0.48,0.32-0.79,0.37
		c-1.1,0.16-2.19,0.35-3.29,0.52c-0.24,0.04-0.48,0.11-0.72,0.11c-0.75,0.02-1.17,0.26-1.34,0.99c-0.24,1.03-0.82,1.62-1.81,1.97
		c-0.53,0.19-0.81,0.78-0.85,1.38c-0.06,0.9-0.31,1.7-1.08,2.28c-0.19,0.15-0.32,0.44-0.38,0.69c-0.17,0.73-0.64,1.13-1.27,1.49
		c-0.86,0.49-1.74,0.96-2.25,1.93c-0.2,0.38-0.71,0.67-1.14,0.86c-0.95,0.41-1.86,0.86-2.64,1.56c-0.29,0.26-0.71,0.49-1.08,0.5
		c-1.05,0.05-1.9,0.59-2.81,1c-0.34,0.15-0.69,0.28-1.05,0.38c-0.57,0.16-1.16,0.29-1.85,0.45c-0.2-0.14-0.48-0.33-0.86-0.59
		c0.49-0.64,0.92-1.26,1.42-1.81c0.5-0.56,0.58-0.86,0.1-1.39c-0.29-0.32-0.35-0.72-0.54-1.06c-0.34-0.62-0.58-1.37-1.46-1.58
		c-1-0.24-1.83-0.8-2.55-1.55c-0.51-0.53-0.99-1.06-1.38-1.69c-0.31-0.49-0.82-0.88-1.31-1.21c-0.44-0.29-0.75-0.63-0.92-1.1
		c-0.16-0.42-0.4-0.75-0.8-0.99c-0.53-0.32-0.89-0.77-1.08-1.38c-0.11-0.35-0.36-0.66-0.55-0.99c-0.03-0.05-0.08-0.08-0.1-0.13
		c-0.35-1.16-1.27-1.93-1.97-2.86c-0.16-0.22-0.34-0.43-0.54-0.6c-0.76-0.66-1.55-1.29-2.31-1.95c-0.24-0.21-0.44-0.48-0.66-0.72
		c-0.32-0.33-0.63-0.67-0.97-0.96c-0.46-0.38-0.68-0.72-0.42-1.19c0.72-1.29,0.04-2.23-0.67-3.18c-0.39-0.52-0.87-0.98-1.24-1.51
		c-0.19-0.27-0.3-0.63-0.33-0.97c-0.09-0.99-0.41-1.44-1.4-1.78c-0.3,0.63-0.36,1.21,0.15,1.8c0.5,0.58,0.41,1.64-0.09,2.26
		c-0.34,0.42-0.68,0.85-0.96,1.31c-0.28,0.47-0.21,0.98-0.05,1.49c0.11,0.32,0.17,0.65,0.23,0.91c-0.14,0.13-0.18,0.19-0.22,0.2
		c-0.78,0.09-1.26,0.47-1.5,1.26c-0.14,0.48-0.47,0.92-0.74,1.35c-0.22,0.34-0.5,0.51-0.96,0.4c-1.43-0.33-2.39,0.49-3.19,1.48
		c-0.33,0.4-0.46,0.98-0.35,1.55c0.03,0.16-0.02,0.33-0.04,0.5c-0.14,0-0.23,0.02-0.24,0c-0.37-0.71-1.06-0.93-1.75-1.17
		c-0.54-0.19-1-0.23-1.38,0.28c-0.11,0.15-0.29,0.32-0.45,0.34c-0.92,0.08-1.45,0.81-2.16,1.23c-0.16,0.09-0.32,0.2-0.48,0.3
		c-0.28-0.54-0.28-0.74,0.11-1.08c0.4-0.35,0.73-0.68,0.73-1.28c0-0.18,0.33-0.47,0.54-0.5c0.36-0.06,0.52-0.25,0.68-0.51
		c0.18-0.3,0.36-0.6,0.55-0.9c0.19-0.3,0.12-0.57-0.11-0.84c-0.82,0-1.56,0.17-2.26,0.69c-0.57,0.42-1.2,0.09-1.72-0.28
		c-0.43-0.31-0.84-0.42-1.37-0.27c-1,0.28-1.01,0.26-1.08,1.26c-0.7,0.21-0.74,0.22-1.09-0.28c-0.25-0.36-0.58-0.54-0.97-0.69
		c-0.6-0.24-1.17-0.57-1.76-0.83c-0.34-0.15-0.7-0.23-1.11-0.36c-0.06,0.46-0.11,0.85-0.17,1.31c-0.78-0.05-1.47-0.26-2.15-0.53
		c-0.7-0.28-1.44-0.51-2.11-0.85c-0.62-0.31-1.19-0.74-1.78-1.13c-0.07-0.05-0.07-0.19-0.12-0.34c0.64-0.31,1.25-0.27,1.88-0.02
		c0.48,0.19,0.97,0.32,1.45,0.5c0.45,0.17,0.91,0.35,1.34,0.58c0.44,0.23,0.87,0.44,1.38,0.3c0.57-1.41,0-2.96-1.26-3.54
		c-0.47-0.21-0.81-0.13-1.18,0.2c-0.6,0.55-1.34,0.64-2.01,0.29c-0.65-0.34-1.26-0.75-1.94-1c-1.09-0.4-1.9-1.13-2.71-1.91
		c-0.58-0.56-1.31-0.88-2.09-1.03c-1.12-0.21-1.86-0.8-2.22-1.89c-0.1-0.29-0.27-0.61-0.7-0.57c-0.41,0.04-0.86,0.41-0.89,0.83
		C20.58,79.04,20.92,79.8,21.72,80.5z M30.33,55.21c0.05,0.09,0.08,0.2,0.15,0.27c0.43,0.47,0.35,0.97,0.02,1.41
		c-0.29,0.38-0.66,0.71-1.05,0.98c-0.55,0.39-0.93,0.8-0.82,1.55c0.04,0.28-0.06,0.58-0.1,0.87c-0.06,0.37-0.16,0.74-0.18,1.12
		c-0.05,0.91,0.07,1.86-0.13,2.74c-0.24,1.07-0.14,2.1-0.03,3.15c0.12,1.14,0.74,1.9,1.84,2.26c0.15,0.05,0.33,0.08,0.46,0.16
		c1.06,0.7,2.3,0.78,3.49,1.02c0.54,0.11,1.07,0.14,1.5,0.53c0.15,0.13,0.38,0.21,0.59,0.24c1.2,0.19,2.4,0.38,3.61,0.54
		c0.4,0.05,0.73,0.13,0.95,0.51c0.1,0.17,0.31,0.29,0.49,0.41c0.62,0.38,1.25,0.75,1.88,1.13c0.23,0.14,0.45,0.32,0.7,0.41
		c0.6,0.21,1.22,0.26,1.81-0.07c0.28-0.16,0.43-0.37,0.46-0.71c0.05-0.46-0.15-0.77-0.43-1.09c-0.68-0.79-0.7-1.06-0.22-1.94
		c0.28-0.5,0.2-0.99,0.06-1.5c-0.12-0.42-0.23-0.84-0.36-1.25c-0.06-0.2-0.15-0.39-0.25-0.58c-0.4-0.79-0.85-1.57-1.21-2.38
		c-0.23-0.52-0.5-0.93-1.03-1.2c-0.45-0.23-0.97-0.51-1.21-0.92c-0.58-0.97-1.46-1.43-2.46-1.73c-0.4-0.12-0.73-0.28-1.03-0.54
		c0.72-1,0.62-1.65-0.41-2.22c-0.88-0.49-1.34-1.33-1.85-2.1c-0.5-0.76-1.42-1.28-2.22-0.96c-0.53,0.21-0.92,0.11-1.34-0.21
		C31.44,54.67,31,54.71,30.33,55.21z M128.68,73.13c0.28-0.31,0.9-0.27,0.86-0.9c-0.04-0.57-0.56-0.62-0.93-0.84
		C127.97,72.15,127.98,72.32,128.68,73.13z M12.53,77.47c0.91-0.28,0.98-0.82,0.26-1.87C12.29,75.93,12.19,76.6,12.53,77.47z
		 M71.5,78.63c0.35-0.3,0.6-0.47,0.24-0.77c-0.03-0.02-0.1,0-0.18,0C71.54,78.05,71.53,78.25,71.5,78.63z"/>
</g>
</svg>
